<svg height="682pt" viewBox="-72 -21 682 682.66669" width="682pt" xmlns="http://www.w3.org/2000/svg"><g fill-rule="evenodd"><path d="m243.109375 101.269531c-27.589844 4.898438-52.261719 18.222657-71.261719 37.222657-6.816406 6.816406-12.902344 14.359374-18.128906 22.515624 40.078125 3.074219 77.101562-21.261718 89.390625-59.738281zm0 0"/><path d="m217.957031 323.75h-50.367187c25.488281 27.9375 61.265625 43.75 99.117187 43.75 37.046875 0 70.582031-15.015625 94.859375-39.292969 24.277344-24.269531 39.292969-57.8125 39.292969-94.855469 0-12.886718-1.824219-25.347656-5.210937-37.144531-50.898438 10.390625-102.453126-11.980469-129.777344-55.769531-27.011719 43.332031-77.714844 65.71875-128.183594 56.042969-3.339844 11.714843-5.128906 24.082031-5.128906 36.871093 0 18.789063 3.867187 36.667969 10.832031 52.898438h74.566406c10.355469 0 18.75 8.394531 18.75 18.75s-8.394531 18.75-18.75 18.75zm0 0"/><path d="m379.601562 160.855469c-5.207031-8.089844-11.257812-15.589844-18.03125-22.363281-19.414062-19.410157-44.746093-32.902344-73.054687-37.523438 12.285156 39.078125 50.472656 63.945312 91.085937 59.886719zm0 0"/><path d="m58.078125 323.75c10.089844 0 20.992187.25 32.023437.445312 13.53125.242188 22.820313-13.332031 17.691407-25.851562-17.21875-42.050781-16.875-90.445312.941406-132.242188 3.945313-9.246093-.078125-19.988281-9.066406-24.300781 25.335937-73.878906 92.527343-104.300781 167.039062-104.300781 74.507813 0 141.703125 30.425781 167.042969 104.300781-8.992188 4.3125-13.007812 15.054688-9.070312 24.300781 17.761718 41.664063 18.160156 89.882813 1.109374 131.835938-5.035156 12.382812 4 25.8125 17.367188 25.8125h32.183594c20.675781 0 37.5-16.820312 37.5-37.5v-108.75c0-23.203125-18.242188-37.5-40.429688-37.5-27.304687-95.429688-110.347656-140-205.703125-140-95.359375 0-178.398437 44.566406-205.703125 140-22.34375 0-40.425781 14.351562-40.425781 37.5v108.75c0 20.679688 16.824219 37.5 37.5 37.5zm0 0"/><path d="m535.75 615.867188c-16.523438-54.710938-52.546875-101.003907-100.289062-133.566407-47.308594-32.277343-106.136719-51.050781-168.753907-51.050781-62.5625 0-121.351562 18.746094-168.648437 50.976562-47.65625 32.476563-83.660156 78.710938-100.246094 133.414063-3.628906 11.96875 5.371094 24.359375 18.035156 24.359375h498.355469c7.363281 0 12.789063-.507812 17.929687-6.621094 3.945313-4.683594 5.515626-11.207031 3.617188-17.511718zm0 0"/></g></svg>