<svg xmlns="http://www.w3.org/2000/svg" width="73" height="101.001" viewBox="0 0 73 101.001">
  <g id="gps">
    <path d="M 36.50009536743164 100.109748840332 L 10.91696929931641 62.40346908569336 L 10.89199638366699 62.36665725708008 L 10.86091613769531 62.33484268188477 C 7.828662872314453 59.23003005981445 5.398596286773682 55.64832305908203 3.638249635696411 51.68921661376953 L 3.620196342468262 51.64864349365234 L 3.61878228187561 51.64655685424805 L 3.528702974319458 51.43978881835938 C 1.519009709358215 46.82673645019531 0.5000096559524536 41.91162872314453 0.5000096559524536 36.83096313476562 C 0.5000096559524536 31.9255485534668 1.451996326446533 27.16716194152832 3.329516410827637 22.68800163269043 C 5.142942905426025 18.3616828918457 7.739076137542725 14.47621536254883 11.04580974578857 11.13952255249023 C 14.3522367477417 7.803095817565918 18.20224952697754 5.183762550354004 22.4889030456543 3.354242324829102 C 26.9264087677002 1.460309028625488 31.64046287536621 0.5000023245811462 36.50010299682617 0.5000023245811462 C 41.3597297668457 0.5000023245811462 46.07378387451172 1.460309028625488 50.51130294799805 3.354242324829102 C 54.79795455932617 5.183762550354004 58.64796829223633 7.803095817565918 61.95439529418945 11.13952255249023 C 65.26114654541016 14.47622871398926 67.85729217529297 18.36169624328613 69.67070007324219 22.68800163269043 C 71.54822540283203 27.16716194152832 72.50020599365234 31.9255485534668 72.50020599365234 36.83096313476562 C 72.50020599365234 41.91156387329102 71.48120880126953 46.82668304443359 69.47152709960938 51.43978881835938 L 69.38333892822266 51.64221954345703 L 69.38142395019531 51.64504241943359 L 69.36328887939453 51.68584060668945 C 67.60210418701172 55.64805603027344 65.17094421386719 59.2313232421875 62.13734436035156 62.33612060546875 L 62.10620880126953 62.36797714233398 L 62.08121109008789 62.40482711791992 L 36.50009536743164 100.109748840332 Z M 36.50010299682617 16.96649551391602 C 26.47258377075195 16.96649551391602 18.31459617614746 25.19638824462891 18.31459617614746 35.31230926513672 C 18.31459617614746 45.42823028564453 26.47258377075195 53.65812301635742 36.50010299682617 53.65812301635742 C 46.52762222290039 53.65812301635742 54.68560791015625 45.42823028564453 54.68560791015625 35.31230926513672 C 54.68560791015625 25.19638824462891 46.52762222290039 16.96649551391602 36.50010299682617 16.96649551391602 Z" stroke="none"/>
    <path d="M 36.50008392333984 99.21918487548828 L 61.66744995117188 62.12410736083984 L 61.71746444702148 62.0504035949707 L 61.77970123291016 61.9866943359375 C 64.77165222167969 58.92453384399414 67.16941070556641 55.39049530029297 68.90637969970703 51.48276138305664 L 68.94266510009766 51.40114974975586 L 68.94354248046875 51.39984893798828 L 69.01314544677734 51.24009704589844 C 70.99520874023438 46.69036102294922 72.00020599365234 41.84243011474609 72.00020599365234 36.83096313476562 C 72.00020599365234 31.99226951599121 71.06130218505859 27.29892158508301 69.20957946777344 22.88128280639648 C 67.42108917236328 18.61445617675781 64.86061096191406 14.78237533569336 61.59925079345703 11.49146938323975 C 58.33853149414062 8.201175689697266 54.54196929931641 5.618135452270508 50.31502151489258 3.814109086990356 C 45.93990325927734 1.946802377700806 41.29188919067383 1.000002264976501 36.50010299682617 1.000002264976501 C 31.70830345153809 1.000002264976501 27.06028938293457 1.946802377700806 22.6851692199707 3.814109086990356 C 18.45823669433594 5.618135452270508 14.66167640686035 8.201175689697266 11.40095615386963 11.49146938323975 C 8.139609336853027 14.78236198425293 5.579143047332764 18.61444282531738 3.790636301040649 22.88128280639648 C 1.938916325569153 27.29892158508301 1.000009655952454 31.99226951599121 1.000009655952454 36.83096313476562 C 1.000009655952454 41.84249496459961 2.005009651184082 46.69041442871094 3.98708963394165 51.24008178710938 L 4.058662414550781 51.40436935424805 L 4.059036254882812 51.40492248535156 L 4.095116138458252 51.486083984375 C 5.831276416778564 55.39077377319336 8.227970123291016 58.92328262329102 11.21862316131592 61.98549652099609 L 11.28078269958496 62.04912185668945 L 11.33071613311768 62.12273406982422 L 36.50008392333984 99.21918487548828 M 36.50010299682617 16.46649551391602 C 46.80332946777344 16.46649551391602 55.18560791015625 24.92069625854492 55.18560791015625 35.31230926513672 C 55.18560791015625 45.70392227172852 46.80332946777344 54.15812301635742 36.50010299682617 54.15812301635742 C 26.19687652587891 54.15812301635742 17.81459617614746 45.70392227172852 17.81459617614746 35.31230926513672 C 17.81459617614746 24.92069625854492 26.19687652587891 16.46649551391602 36.50010299682617 16.46649551391602 M 36.4998779296875 101.0006256103516 L 36.50010299682617 101.0003051757812 L 10.50321006774902 62.68418884277344 C 7.429356098175049 59.53678894042969 4.965902805328369 55.90584182739258 3.181369781494141 51.89236068725586 L 3.010009765625 51.63948059082031 L 3.070316314697266 51.63948059082031 C 1.032769680023193 46.96250915527344 9.663493074185681e-06 41.97985458374023 9.663493074185681e-06 36.83096313476562 C 9.663493074185681e-06 31.85884284973145 0.9650629758834839 27.03542900085449 2.868382930755615 22.49470901489258 C 4.706742763519287 18.10890960693359 7.338542938232422 14.1700553894043 10.69066333770752 10.78756237030029 C 14.04276943206787 7.405055522918701 17.94623565673828 4.749389171600342 22.29263687133789 2.894375562667847 C 26.79255676269531 0.9738023281097412 31.5726490020752 2.32381194109621e-06 36.50010299682617 2.32381194109621e-06 C 41.42755508422852 2.32381194109621e-06 46.20763778686523 0.9738023281097412 50.70756912231445 2.894375562667847 C 55.05397033691406 4.749389171600342 58.95743560791016 7.405055522918701 62.30954360961914 10.78756237030029 C 65.66165924072266 14.1700553894043 68.29347991943359 18.10890960693359 70.1318359375 22.49470901489258 C 72.03515625 27.03542900085449 73.00020599365234 31.85884284973145 73.00020599365234 36.83096313476562 C 73.00020599365234 41.98073577880859 71.96719360351562 46.96304321289062 69.92991638183594 51.63948059082031 L 69.98953247070312 51.63948059082031 L 69.82018280029297 51.88893508911133 C 68.03478240966797 55.90561676025391 65.57019805908203 59.53815078735352 62.49496841430664 62.68555068969727 L 36.50010299682617 101.0003051757812 L 36.4998779296875 101.0006256103516 Z M 36.50010299682617 17.46649551391602 C 26.74828910827637 17.46649551391602 18.81459617614746 25.47209548950195 18.81459617614746 35.31230926513672 C 18.81459617614746 45.15252304077148 26.74828910827637 53.15812301635742 36.50010299682617 53.15812301635742 C 46.25191497802734 53.15812301635742 54.18560791015625 45.15252304077148 54.18560791015625 35.31230926513672 C 54.18560791015625 25.47209548950195 46.25191497802734 17.46649551391602 36.50010299682617 17.46649551391602 Z" stroke="none" fill="#707070"/>
  </g>
</svg>
