<svg xmlns="http://www.w3.org/2000/svg" xmlns:xlink="http://www.w3.org/1999/xlink" width="1366" height="405" viewBox="0 0 1366 405">
  <defs>
    <linearGradient id="linear-gradient" x1="1.013" y1="1.004" x2="-0.025" y2="-0.016" gradientUnits="objectBoundingBox">
      <stop offset="0" stop-color="#fff"/>
      <stop offset="1" stop-color="#cdd7df"/>
    </linearGradient>
    <clipPath id="clip-path">
      <rect id="Retângulo_15" data-name="Retângulo 15" width="1366" height="404" fill="none"/>
    </clipPath>
  </defs>
  <g id="jubotron" transform="translate(0 -98)">
    <rect id="Retângulo_2" data-name="Retângulo 2" width="1366" height="403" transform="translate(0 100)" fill="#1c75bc"/>
    <g id="jubotron-geometrico" transform="translate(0 98)" opacity="0.41">
      <g id="background">
        <rect id="Retângulo_13" data-name="Retângulo 13" width="1366" height="404" opacity="0.34" fill="url(#linear-gradient)"/>
        <rect id="Retângulo_14" data-name="Retângulo 14" width="1366" height="404" fill="none"/>
        <g id="Grupo_40" data-name="Grupo 40">
          <g id="Grupo_39" data-name="Grupo 39" clip-path="url(#clip-path)">
            <g id="Grupo_38" data-name="Grupo 38" transform="translate(-226.627 -79.845)">
              <g id="Grupo_35" data-name="Grupo 35" transform="translate(111.533)">
                <path id="Caminho_363" data-name="Caminho 363" d="M6.562,41.313,210.273-59.067-42.48-51.123Z" transform="translate(80.204 91.186)" fill="#c5dbea" opacity="0.5"/>
                <path id="Caminho_364" data-name="Caminho 364" d="M212.195,53.239-34.9,3.049-63.192,78.514Z" transform="translate(63.192 79.26)" fill="#c5dbea" opacity="0.5"/>
                <path id="Caminho_365" data-name="Caminho 365" d="M288.313-26.3,41.219-76.492,12.926-1.027Z" transform="translate(125.71 94.532)" fill="#c5dbea" opacity="0.5"/>
                <path id="Caminho_366" data-name="Caminho 366" d="M310.061,20.4,62.967-29.794,34.674,45.672Z" transform="translate(143.573 85.566)" fill="#c5dbea" opacity="0.5"/>
                <path id="Caminho_367" data-name="Caminho 367" d="M503.263,326.354l-247.094-50.19-28.293,75.465Z" transform="translate(302.256 26.822)" fill="#a5b7c6" opacity="0.25"/>
                <path id="Caminho_368" data-name="Caminho 368" d="M137.4,90.837,41.2-6.654l235.776-5.251Z" transform="translate(148.935 82.131)" fill="#e6f5ff" opacity="0.18"/>
                <path id="Caminho_369" data-name="Caminho 369" d="M89.1,22.891-7.1-74.6l235.776-5.251Z" transform="translate(109.265 95.177)" fill="#e6f5ff" opacity="0.18"/>
                <path id="Caminho_370" data-name="Caminho 370" d="M249.449,416.891l-96.2-97.491,235.776-5.251Z" transform="translate(240.965 19.529)" fill="#e6f5ff" opacity="0.18"/>
                <path id="Caminho_371" data-name="Caminho 371" d="M184.723,306.512l-96.2-97.491L324.3,203.77Z" transform="translate(187.803 40.722)" fill="#e6f5ff" opacity="0.18"/>
                <path id="Caminho_372" data-name="Caminho 372" d="M75.456,333.619l160.156-84.268,140.788,72.6Z" transform="translate(177.068 31.97)" fill="#e6f5ff" opacity="0.18"/>
                <path id="Caminho_373" data-name="Caminho 373" d="M248.406,108.423,165.412,49.748-6.233,101.2Z" transform="translate(109.974 70.294)" fill="#f6f6f6" opacity="0.5"/>
                <path id="Caminho_374" data-name="Caminho 374" d="M7,160.418,117.341,93.98-1.673,49.748Z" transform="translate(113.719 70.294)" fill="#d8d8db" opacity="0.5"/>
                <path id="Caminho_375" data-name="Caminho 375" d="M56.352,81.346,161.476,17.8H-26.7Z" transform="translate(93.162 76.429)" fill="#c5dbea" opacity="0.5"/>
                <path id="Caminho_376" data-name="Caminho 376" d="M288.607,105.961,52.831,54.319l-73.562,80.257Z" transform="translate(98.066 69.416)" fill="#c5dbea" opacity="0.24"/>
                <path id="Caminho_377" data-name="Caminho 377" d="M277.29,44.274-20.732,79.249,5.675-24.839Z" transform="translate(98.066 84.615)" fill="#c1d7e5" opacity="0.05"/>
                <path id="Caminho_378" data-name="Caminho 378" d="M557.777,173.556,264.9,132.709,449.8,55.735Z" transform="translate(332.662 69.144)" fill="#c1d7e5" opacity="0.32"/>
                <path id="Caminho_379" data-name="Caminho 379" d="M296.314,241.712l182.765-96.674,142.772,89.155Z" transform="translate(358.466 51.998)" fill="#c1d7e5" opacity="0.32"/>
                <path id="Caminho_380" data-name="Caminho 380" d="M637.473,125.269l-77.335-86.2L335.68,90.342Z" transform="translate(390.798 72.344)" fill="#c5dbea" opacity="0.12"/>
                <path id="Caminho_381" data-name="Caminho 381" d="M16.918,208.3l203.711-100.38-252.752,7.944Z" transform="translate(88.71 59.125)" fill="#c5dbea" opacity="0.5"/>
                <path id="Caminho_382" data-name="Caminho 382" d="M352.518,142.247,556.228,41.867,303.476,49.811Z" transform="translate(364.349 71.807)" fill="#c5dbea" opacity="0.16"/>
                <path id="Caminho_383" data-name="Caminho 383" d="M222.551,220.224l-247.094-50.19L-52.836,245.5Z" transform="translate(71.698 47.199)" fill="#c5dbea" opacity="0.5"/>
                <path id="Caminho_384" data-name="Caminho 384" d="M342.539,383.152,95.446,332.962,67.152,408.427Z" transform="translate(170.248 15.917)" fill="#c5dbea" opacity="0.27"/>
                <path id="Caminho_385" data-name="Caminho 385" d="M141.745,260.468l-96.2-97.491,235.776-5.251Z" transform="translate(152.504 49.562)" fill="#e6f5ff" opacity="0.5"/>
                <path id="Caminho_386" data-name="Caminho 386" d="M258.762,275.408l-82.993-58.675L4.123,268.186Z" transform="translate(118.48 38.233)" fill="#f6f6f6" opacity="0.5"/>
                <path id="Caminho_387" data-name="Caminho 387" d="M.956,337.168,111.3,270.73-7.715,226.5Z" transform="translate(108.757 36.358)" fill="#d8d8db" opacity="0.28"/>
                <path id="Caminho_388" data-name="Caminho 388" d="M-7.248,449.466,103.1,383.028-15.919,338.8Z" transform="translate(102.019 14.797)" fill="#d8d8db" opacity="0.28"/>
                <path id="Caminho_389" data-name="Caminho 389" d="M66.708,248.331l105.125-63.55H-16.346Z" transform="translate(101.668 44.367)" fill="#c5dbea" opacity="0.5"/>
                <path id="Caminho_390" data-name="Caminho 390" d="M288.607,264.733,52.831,213.092l-73.562,80.257Z" transform="translate(98.066 38.932)" fill="#c5dbea" opacity="0.28"/>
                <path id="Caminho_391" data-name="Caminho 391" d="M287.646,211.259-10.375,246.234,16.032,142.146Z" transform="translate(106.572 52.553)" fill="#c1d7e5" opacity="0.05"/>
                <path id="Caminho_392" data-name="Caminho 392" d="M456.9,389.355,158.875,424.331l26.407-104.088Z" transform="translate(245.583 18.359)" fill="#c1d7e5" opacity="0.05"/>
                <path id="Caminho_393" data-name="Caminho 393" d="M305.917,186.074l-77.335-86.2L4.123,151.147Z" transform="translate(118.48 60.67)" fill="#c5dbea" opacity="0.24"/>
                <path id="Caminho_394" data-name="Caminho 394" d="M417.842-62.167,680.025,15.826,659.277-80.943Z" transform="translate(458.281 95.387)" fill="#c5dbea" opacity="0.5"/>
                <path id="Caminho_395" data-name="Caminho 395" d="M447.613,6.616,578.7-87.986,381.6-98.819Z" transform="translate(428.511 98.819)" fill="#c5dbea" opacity="0.5"/>
                <path id="Caminho_396" data-name="Caminho 396" d="M356.74,22.918l254.638-36.83,13.715,90.27Z" transform="translate(408.097 82.516)" fill="#e6f5ff" opacity="0.5"/>
                <path id="Caminho_397" data-name="Caminho 397" d="M351.562,47.829,504.817,16.054,370.424-49.662Z" transform="translate(403.844 89.381)" fill="#f6f6f6" opacity="0.5"/>
                <path id="Caminho_398" data-name="Caminho 398" d="M277-42.407,450.529-.161l115.53-45.566Z" transform="translate(342.601 88.625)" fill="#d8d8db" opacity="0.5"/>
                <path id="Caminho_399" data-name="Caminho 399" d="M381.6-35.529,547.582,4.719V-67.328Z" transform="translate(428.511 92.772)" fill="#c5dbea" opacity="0.5"/>
                <path id="Caminho_400" data-name="Caminho 400" d="M390.057,56.259,524.941-34.01,315.316-62.174Z" transform="translate(374.073 91.783)" fill="#c5dbea" opacity="0.28"/>
                <path id="Caminho_401" data-name="Caminho 401" d="M464.216,51.926l-91.353-114.1,271.87,10.11Z" transform="translate(421.338 91.783)" fill="#c1d7e5" opacity="0.05"/>
                <path id="Caminho_402" data-name="Caminho 402" d="M447.5,65.883,672.644,36.275,538.723-49.662Z" transform="translate(482.638 89.381)" fill="#c5dbea" opacity="0.28"/>
                <path id="Caminho_403" data-name="Caminho 403" d="M224.352-53.23,486.535,24.763,465.787-72.006Z" transform="translate(299.362 93.671)" fill="#c5dbea" opacity="0.18"/>
                <path id="Caminho_404" data-name="Caminho 404" d="M254.123,15.554l131.092-94.6L188.105-89.881Z" transform="translate(269.591 97.103)" fill="#c5dbea" opacity="0.5"/>
                <path id="Caminho_405" data-name="Caminho 405" d="M172.483,19.79,427.121-17.04l13.715,90.27Z" transform="translate(256.76 83.117)" fill="#e6f5ff" opacity="0.5"/>
                <path id="Caminho_406" data-name="Caminho 406" d="M158.072,56.767,311.327,24.992,176.935-40.724Z" transform="translate(244.924 87.664)" fill="#f6f6f6" opacity="0.5"/>
                <path id="Caminho_407" data-name="Caminho 407" d="M83.508-33.469,257.039,8.777l115.53-45.566Z" transform="translate(183.681 86.909)" fill="#d8d8db" opacity="0.5"/>
                <path id="Caminho_408" data-name="Caminho 408" d="M188.105-26.592,354.092,13.656V-58.39Z" transform="translate(269.591 91.056)" fill="#c5dbea" opacity="0.5"/>
                <path id="Caminho_409" data-name="Caminho 409" d="M196.567,65.2l134.884-90.27L121.826-53.237Z" transform="translate(215.153 90.067)" fill="#c5dbea" opacity="0.24"/>
                <path id="Caminho_410" data-name="Caminho 410" d="M270.726,60.864l-91.354-114.1,271.87,10.11Z" transform="translate(262.419 90.067)" fill="#c1d7e5" opacity="0.05"/>
                <path id="Caminho_411" data-name="Caminho 411" d="M254.008,74.821,479.154,45.212,345.233-40.724Z" transform="translate(323.719 87.664)" fill="#c5dbea" opacity="0.24"/>
                <path id="Caminho_412" data-name="Caminho 412" d="M-4.179,380.938l225.146-29.608L87.047,265.393Z" transform="translate(111.662 28.89)" fill="#c5dbea" opacity="0.24"/>
                <path id="Caminho_413" data-name="Caminho 413" d="M332.735,210.234l134.884-90.27L257.995,91.8Z" transform="translate(326.993 62.22)" fill="#c5dbea" opacity="0.24"/>
                <path id="Caminho_414" data-name="Caminho 414" d="M167.031,100.746l262.183,77.993L408.466,81.969Z" transform="translate(252.282 64.107)" fill="#c5dbea" opacity="0.28"/>
                <path id="Caminho_415" data-name="Caminho 415" d="M196.8,169.529l131.092-94.6L130.784,64.094Z" transform="translate(222.511 67.539)" fill="#c5dbea" opacity="0.18"/>
                <path id="Caminho_416" data-name="Caminho 416" d="M105.929,185.831,360.568,149l13.715,90.27Z" transform="translate(202.097 51.237)" fill="#e6f5ff" opacity="0.5"/>
                <path id="Caminho_417" data-name="Caminho 417" d="M100.751,210.742l153.255-31.775L119.613,113.251Z" transform="translate(197.844 58.101)" fill="#f6f6f6" opacity="0.5"/>
                <path id="Caminho_418" data-name="Caminho 418" d="M130.784,127.384l165.986,40.248V95.585Z" transform="translate(222.511 61.493)" fill="#c5dbea" opacity="0.5"/>
                <path id="Caminho_419" data-name="Caminho 419" d="M213.4,214.839l-91.353-114.1,271.87,10.11Z" transform="translate(215.339 60.504)" fill="#c1d7e5" opacity="0.05"/>
                <path id="Caminho_420" data-name="Caminho 420" d="M196.686,228.8l225.147-29.608L287.912,113.251Z" transform="translate(276.639 58.101)" fill="#c5dbea" opacity="0.24"/>
                <path id="Caminho_421" data-name="Caminho 421" d="M203.088,297.086l225.146-29.608L294.314,181.541Z" transform="translate(281.897 44.99)" fill="#c5dbea" opacity="0.24"/>
              </g>
              <g id="Grupo_36" data-name="Grupo 36" transform="translate(0 53.77)">
                <path id="Caminho_422" data-name="Caminho 422" d="M141.591,532.922-84.678,442.549l17.906,112.129Z" transform="translate(157.078 -58.894)" fill="#c5dbea" opacity="0.5"/>
                <path id="Caminho_423" data-name="Caminho 423" d="M90.573,450.834-22.561,560.453,147.547,573Z" transform="translate(208.096 -60.485)" fill="#c5dbea" opacity="0.5"/>
                <path id="Caminho_424" data-name="Caminho 424" d="M11.031,374.716-102.1,484.334,68.005,496.886Z" transform="translate(142.766 -45.87)" fill="#c5dbea" opacity="0.5"/>
                <path id="Caminho_425" data-name="Caminho 425" d="M57.73,352.968-55.4,462.586,114.7,475.138Z" transform="translate(181.122 -41.695)" fill="#c5dbea" opacity="0.5"/>
                <path id="Caminho_426" data-name="Caminho 426" d="M363.688,159.766,250.554,269.385l170.108,12.552Z" transform="translate(432.415 -4.6)" fill="#a5b7c6" opacity="0.25"/>
                <path id="Caminho_427" data-name="Caminho 427" d="M194.077,430.109-25.68,472.785l-11.836-104.6Z" transform="translate(195.814 -44.617)" fill="#e6f5ff" opacity="0.18"/>
                <path id="Caminho_428" data-name="Caminho 428" d="M126.132,478.409-93.625,521.085l-11.836-104.6Z" transform="translate(140.008 -53.89)" fill="#e6f5ff" opacity="0.18"/>
                <path id="Caminho_429" data-name="Caminho 429" d="M520.131,318.059,300.374,360.735l-11.836-104.6Z" transform="translate(463.613 -23.103)" fill="#e6f5ff" opacity="0.18"/>
                <path id="Caminho_430" data-name="Caminho 430" d="M409.752,382.786,190,425.462l-11.836-104.6Z" transform="translate(372.955 -35.531)" fill="#e6f5ff" opacity="0.18"/>
                <path id="Caminho_431" data-name="Caminho 431" d="M156.4,405.267,24.137,442.085,140.12,518.232Z" transform="translate(246.452 -51.736)" fill="#f6f6f6" opacity="0.5"/>
                <path id="Caminho_432" data-name="Caminho 432" d="M273.6,524.123l-149.76-48.952-99.7,52.8Z" transform="translate(246.452 -65.158)" fill="#d8d8db" opacity="0.5"/>
                <path id="Caminho_433" data-name="Caminho 433" d="M135.435,508.863-7.814,462.226v83.482Z" transform="translate(220.208 -62.672)" fill="#c5dbea" opacity="0.5"/>
                <path id="Caminho_434" data-name="Caminho 434" d="M145.116,389.733,28.708,494.33l180.91,32.634Z" transform="translate(250.206 -48.754)" fill="#c5dbea" opacity="0.24"/>
                <path id="Caminho_435" data-name="Caminho 435" d="M105.339,395.946l78.839,132.212L-50.449,516.443Z" transform="translate(185.191 -49.947)" fill="#c1d7e5" opacity="0.05"/>
                <path id="Caminho_436" data-name="Caminho 436" d="M295.707,113.141,203.632,243.072,30.125,161.042Z" transform="translate(251.369 4.352)" fill="#c1d7e5" opacity="0.32"/>
                <path id="Caminho_437" data-name="Caminho 437" d="M337.344,208.211l-217.916-81.08L320.395,63.793Z" transform="translate(324.716 13.827)" fill="#c1d7e5" opacity="0.32"/>
                <path id="Caminho_438" data-name="Caminho 438" d="M207.764,37.464,13.459,71.772l115.576,99.577Z" transform="translate(237.681 18.882)" fill="#c5dbea" opacity="0.12"/>
                <path id="Caminho_439" data-name="Caminho 439" d="M308.576,522.565,82.307,432.193l17.906,112.129Z" transform="translate(294.229 -56.906)" fill="#c5dbea" opacity="0.5"/>
                <path id="Caminho_440" data-name="Caminho 440" d="M242.525,186.966,16.257,96.593,34.163,208.722Z" transform="translate(239.979 7.529)" fill="#c5dbea" opacity="0.16"/>
                <path id="Caminho_441" data-name="Caminho 441" d="M257.558,440.478,144.424,550.1l170.108,12.552Z" transform="translate(345.247 -58.497)" fill="#c5dbea" opacity="0.5"/>
                <path id="Caminho_442" data-name="Caminho 442" d="M363.709,425.764,143.952,468.44l-11.836-104.6Z" transform="translate(335.138 -43.783)" fill="#e6f5ff" opacity="0.5"/>
                <path id="Caminho_443" data-name="Caminho 443" d="M323.384,394.911,191.122,431.729l115.983,76.147Z" transform="translate(383.602 -49.748)" fill="#f6f6f6" opacity="0.5"/>
                <path id="Caminho_444" data-name="Caminho 444" d="M302.42,498.506,159.171,451.87v83.482Z" transform="translate(357.359 -60.684)" fill="#c5dbea" opacity="0.5"/>
                <path id="Caminho_445" data-name="Caminho 445" d="M303.888,389.733,187.481,494.33l180.91,32.634Z" transform="translate(380.611 -48.754)" fill="#c5dbea" opacity="0.28"/>
                <path id="Caminho_446" data-name="Caminho 446" d="M272.324,385.59,351.163,517.8,116.535,506.087Z" transform="translate(322.341 -47.958)" fill="#c1d7e5" opacity="0.05"/>
                <path id="Caminho_447" data-name="Caminho 447" d="M450.42,216.34,529.26,348.552,294.632,336.837Z" transform="translate(468.618 -15.462)" fill="#c1d7e5" opacity="0.05"/>
                <path id="Caminho_448" data-name="Caminho 448" d="M268.569,369.02,74.264,403.328,189.84,502.905Z" transform="translate(287.622 -44.777)" fill="#c5dbea" opacity="0.24"/>
                <path id="Caminho_449" data-name="Caminho 449" d="M-64.23,93.362,111.575-22.951l-218.129,9.2Z" transform="translate(139.11 30.482)" fill="#c5dbea" opacity="0.5"/>
                <path id="Caminho_450" data-name="Caminho 450" d="M113.234,107.181-100.011,49.025l-24.418,87.444Z" transform="translate(124.429 16.662)" fill="#c5dbea" opacity="0.5"/>
                <path id="Caminho_451" data-name="Caminho 451" d="M43.5,153.813-39.522,40.848l203.479-6.084Z" transform="translate(194.166 19.401)" fill="#e6f5ff" opacity="0.5"/>
                <path id="Caminho_452" data-name="Caminho 452" d="M144.485,171.125,72.86,103.136-75.272,162.757Z" transform="translate(164.803 6.273)" fill="#f6f6f6" opacity="0.5"/>
                <path id="Caminho_453" data-name="Caminho 453" d="M-63.854,231.373l95.228-76.984L-71.337,103.136Z" transform="translate(168.035 6.273)" fill="#d8d8db" opacity="0.5"/>
                <path id="Caminho_454" data-name="Caminho 454" d="M-21.261,139.75,69.463,66.113h-162.4Z" transform="translate(150.294 13.381)" fill="#c5dbea" opacity="0.5"/>
                <path id="Caminho_455" data-name="Caminho 455" d="M179.179,168.272-24.3,108.433l-63.485,93Z" transform="translate(154.526 5.256)" fill="#c5dbea" opacity="0.28"/>
                <path id="Caminho_456" data-name="Caminho 456" d="M169.412,96.793l-257.2,40.527L-65,16.71Z" transform="translate(154.526 22.867)" fill="#c1d7e5" opacity="0.05"/>
                <path id="Caminho_457" data-name="Caminho 457" d="M185.18,67.611,118.44-32.271-75.272,27.14Z" transform="translate(164.803 32.271)" fill="#c5dbea" opacity="0.28"/>
                <path id="Caminho_458" data-name="Caminho 458" d="M-55.293,286.852,120.513,170.539l-218.129,9.2Z" transform="translate(146.451 -6.668)" fill="#c5dbea" opacity="0.18"/>
                <path id="Caminho_459" data-name="Caminho 459" d="M122.172,300.671-91.074,242.515l-24.417,87.444Z" transform="translate(131.77 -20.488)" fill="#c5dbea" opacity="0.5"/>
                <path id="Caminho_460" data-name="Caminho 460" d="M40.369,338.071-42.65,225.105l203.479-6.084Z" transform="translate(191.597 -15.977)" fill="#e6f5ff" opacity="0.5"/>
                <path id="Caminho_461" data-name="Caminho 461" d="M153.422,364.615,81.8,296.626-66.335,356.247Z" transform="translate(172.144 -30.877)" fill="#f6f6f6" opacity="0.5"/>
                <path id="Caminho_462" data-name="Caminho 462" d="M-54.916,424.863l95.228-76.984L-62.4,296.626Z" transform="translate(175.376 -30.877)" fill="#d8d8db" opacity="0.5"/>
                <path id="Caminho_463" data-name="Caminho 463" d="M-12.323,333.24,78.4,259.6H-84Z" transform="translate(157.634 -23.769)" fill="#c5dbea" opacity="0.5"/>
                <path id="Caminho_464" data-name="Caminho 464" d="M188.117,361.762-15.362,301.923l-63.485,93Z" transform="translate(161.867 -31.894)" fill="#c5dbea" opacity="0.24"/>
                <path id="Caminho_465" data-name="Caminho 465" d="M178.35,290.283l-257.2,40.527,22.79-120.61Z" transform="translate(161.867 -14.283)" fill="#c1d7e5" opacity="0.05"/>
                <path id="Caminho_466" data-name="Caminho 466" d="M194.118,261.1l-66.741-99.882L-66.335,220.63Z" transform="translate(172.144 -4.879)" fill="#c5dbea" opacity="0.24"/>
                <path id="Caminho_467" data-name="Caminho 467" d="M333.155,225.593,129.676,165.754l-63.485,93Z" transform="translate(280.991 -5.75)" fill="#c5dbea" opacity="0.24"/>
                <path id="Caminho_468" data-name="Caminho 468" d="M98.683,344.173,274.488,227.861l-218.129,9.2Z" transform="translate(272.916 -17.674)" fill="#c5dbea" opacity="0.28"/>
                <path id="Caminho_469" data-name="Caminho 469" d="M276.147,357.993,62.9,299.836,38.484,387.28Z" transform="translate(258.235 -31.493)" fill="#c5dbea" opacity="0.18"/>
                <path id="Caminho_470" data-name="Caminho 470" d="M206.41,404.624,123.391,291.659l203.479-6.084Z" transform="translate(327.972 -28.755)" fill="#e6f5ff" opacity="0.5"/>
                <path id="Caminho_471" data-name="Caminho 471" d="M307.4,421.936l-71.624-67.989L87.641,413.568Z" transform="translate(298.609 -41.883)" fill="#f6f6f6" opacity="0.5"/>
                <path id="Caminho_472" data-name="Caminho 472" d="M141.652,390.561l90.724-73.637H69.975Z" transform="translate(284.099 -34.774)" fill="#c5dbea" opacity="0.5"/>
                <path id="Caminho_473" data-name="Caminho 473" d="M332.325,347.6l-257.2,40.527,22.79-120.61Z" transform="translate(288.332 -25.289)" fill="#c1d7e5" opacity="0.05"/>
                <path id="Caminho_474" data-name="Caminho 474" d="M348.093,318.422,281.352,218.54,87.641,277.952Z" transform="translate(298.609 -15.885)" fill="#c5dbea" opacity="0.24"/>
                <path id="Caminho_475" data-name="Caminho 475" d="M416.384,312.02l-66.741-99.882L155.931,271.55Z" transform="translate(354.698 -14.655)" fill="#c5dbea" opacity="0.24"/>
              </g>
              <g id="Grupo_37" data-name="Grupo 37" transform="translate(139.504 64.982)">
                <path id="Caminho_476" data-name="Caminho 476" d="M-19.325,303.366,91,339.061-37.083,359.211Z" transform="translate(56.665 -43.383)" fill="none" stroke="#6b81bf" stroke-miterlimit="10" stroke-width="0.25"/>
                <path id="Caminho_477" data-name="Caminho 477" d="M127.58,278.168,82.992,334.223-27.333,298.528Z" transform="translate(64.673 -38.545)" fill="none" stroke="#6b81bf" stroke-miterlimit="10" stroke-width="0.25"/>
                <path id="Caminho_478" data-name="Caminho 478" d="M-47.835,236.411l192.253,33.74-154.913,20.36Z" transform="translate(47.835 -30.528)" fill="none" stroke="#6b81bf" stroke-miterlimit="10" stroke-width="0.25"/>
                <path id="Caminho_479" data-name="Caminho 479" d="M198.351,278.168H57.722l140.63,65.2Z" transform="translate(134.532 -38.545)" fill="none" stroke="#6b81bf" stroke-miterlimit="10" stroke-width="0.25"/>
                <path id="Caminho_480" data-name="Caminho 480" d="M218.458,356.684,33.241,347.543,107.957,421.7Z" transform="translate(114.425 -51.865)" fill="none" stroke="#6b81bf" stroke-miterlimit="10" stroke-width="0.25"/>
                <path id="Caminho_481" data-name="Caminho 481" d="M-37.083,367.693,66.346,396.2,91,347.543,165.717,421.7,66.346,396.2" transform="translate(56.665 -51.865)" fill="none" stroke="#6b81bf" stroke-miterlimit="10" stroke-width="0.25"/>
                <path id="Caminho_482" data-name="Caminho 482" d="M66.346,407.765-3.261,452.553l168.978-19.288L190.3,491.415l-227.385,4.766,202.8-62.917" transform="translate(56.665 -63.428)" fill="none" stroke="#6b81bf" stroke-miterlimit="10" stroke-width="0.25"/>
                <path id="Caminho_483" data-name="Caminho 483" d="M149.981,401.411l137.908,18.037-73,23.836-64.9-41.873,137.908-75.928,46.8,51.914Z" transform="translate(210.308 -47.629)" fill="none" stroke="#6b81bf" stroke-miterlimit="10" stroke-width="0.25"/>
                <path id="Caminho_484" data-name="Caminho 484" d="M73.411,256.5,38.62,197.219,214.04,256.5V165.337l165.314,38.7L214.04,256.5l165.314,38.23L214.04,321.7l27.406,48.962L103.539,386.718l202.811,25.819L128.123,444.869" transform="translate(118.843 -16.881)" fill="none" stroke="#6b81bf" stroke-miterlimit="10" stroke-width="0.25"/>
                <path id="Caminho_485" data-name="Caminho 485" d="M109.628,191.188-3.332,135.614l-44.5,81.12,157.463-25.546,175.42-31.883-140.63-25.381Z" transform="translate(47.835 -10.85)" fill="none" stroke="#6b81bf" stroke-miterlimit="10" stroke-width="0.25"/>
                <path id="Caminho_486" data-name="Caminho 486" d="M124.35,123.531-23.4,125.22,98.538,79.789Z" transform="translate(67.903 -0.456)" fill="none" stroke="#6b81bf" stroke-miterlimit="10" stroke-width="0.25"/>
                <path id="Caminho_487" data-name="Caminho 487" d="M-23.4,29.482,98.538,70.13-23.4,115.561Z" transform="translate(67.903 9.203)" fill="none" stroke="#6b81bf" stroke-miterlimit="10" stroke-width="0.25"/>
                <path id="Caminho_488" data-name="Caminho 488" d="M127.91-18.4,98.538,60.938-23.4,20.289Z" transform="translate(67.903 18.395)" fill="none" stroke="#6b81bf" stroke-miterlimit="10" stroke-width="0.25"/>
                <path id="Caminho_489" data-name="Caminho 489" d="M185.891,79.789,57.722,123.531l140.63,25.381Z" transform="translate(134.532 -0.456)" fill="none" stroke="#6b81bf" stroke-miterlimit="10" stroke-width="0.25"/>
                <path id="Caminho_490" data-name="Caminho 490" d="M59.676-18.4,191.692,9.233,269.731-18.4l-8.9,50.53-69.138-22.9" transform="translate(136.137 18.395)" fill="none" stroke="#6b81bf" stroke-miterlimit="10" stroke-width="0.25"/>
                <path id="Caminho_491" data-name="Caminho 491" d="M225.7,213.228l163.394,34.748L225.7,303.93" transform="translate(272.497 -26.076)" fill="none" stroke="#6b81bf" stroke-miterlimit="10" stroke-width="0.25"/>
                <path id="Caminho_492" data-name="Caminho 492" d="M197.53,67.5l7.407-51.7L43.55,67.5H197.53l76.545-28.8-64.085,97.925,202.966-5.6L375.3,175.321v90.7l215.376-11.729L422.1,317.937l138.1,54.814-40.431-91.686,134.351,47.461-63.441-74.232,136.625-12.637L538.7,210.069l51.982,44.225,217.432,46.6" transform="translate(122.892 11.83)" fill="none" stroke="#6b81bf" stroke-miterlimit="10" stroke-width="0.25"/>
                <path id="Caminho_493" data-name="Caminho 493" d="M272.5,389.733l-46.8,42.052,184.9,12.762L246.072,492.719" transform="translate(272.497 -59.965)" fill="none" stroke="#6b81bf" stroke-miterlimit="10" stroke-width="0.25"/>
                <path id="Caminho_494" data-name="Caminho 494" d="M185.616,465.613l93.377,37.1-20.373-60.935" transform="translate(239.576 -69.958)" fill="none" stroke="#6b81bf" stroke-miterlimit="10" stroke-width="0.25"/>
                <path id="Caminho_495" data-name="Caminho 495" d="M487.9,504.712,327.217,447.063l93.92-44.224Z" transform="translate(355.877 -62.482)" fill="none" stroke="#6b81bf" stroke-miterlimit="10" stroke-width="0.25"/>
                <path id="Caminho_496" data-name="Caminho 496" d="M528.179,191.659,372.114,235.094l60.039-88.957-185.781,9.916Z" transform="translate(289.477 -13.195)" fill="none" stroke="#6b81bf" stroke-miterlimit="10" stroke-width="0.25"/>
                <path id="Caminho_497" data-name="Caminho 497" d="M463.642,222.355,337.9,143.314l28.252-63.525L134.934,148.912" transform="translate(197.949 -0.456)" fill="none" stroke="#6b81bf" stroke-miterlimit="10" stroke-width="0.25"/>
                <path id="Caminho_498" data-name="Caminho 498" d="M532.774,368.639l33.822,59.1L378.783,396.272l153.991-27.633" transform="translate(398.23 -55.915)" fill="none" stroke="#6b81bf" stroke-miterlimit="10" stroke-width="0.25"/>
                <path id="Caminho_499" data-name="Caminho 499" d="M415.438,512.188,536.49,441.777l210.055,70.411" transform="translate(428.336 -69.958)" fill="none" stroke="#6b81bf" stroke-miterlimit="10" stroke-width="0.25"/>
                <path id="Caminho_500" data-name="Caminho 500" d="M704.156,294.589,623.35,235.353,590.808,160.33l-96.026-45.523L678.153,68.554,550.165,43.813,429.063-17.04,337.253,61.2,550.165,43.813l-55.384,70.993L337.253,61.2,170.12,32.4,429.063-17.04" transform="translate(226.848 18.135)" fill="none" stroke="#6b81bf" stroke-miterlimit="10" stroke-width="0.25"/>
                <path id="Caminho_501" data-name="Caminho 501" d="M378.783,43.553,522.094-18.4,506.771,68.294,703.243-13.5" transform="translate(398.23 18.395)" fill="none" stroke="#6b81bf" stroke-miterlimit="10" stroke-width="0.25"/>
              </g>
            </g>
          </g>
        </g>
      </g>
      <g id="designed_by_freepik" data-name="designed by freepik" transform="translate(611.876 375.277)">
        <g id="Grupo_46" data-name="Grupo 46">
          <g id="Grupo_45" data-name="Grupo 45">
            <g id="Grupo_43" data-name="Grupo 43" transform="translate(78.463)">
              <g id="Grupo_42" data-name="Grupo 42">
                <path id="Caminho_502" data-name="Caminho 502" d="M385.1,475.466A7.5,7.5,0,0,0,384,476.919l-.465-.241a.6.6,0,1,0-.518.732.567.567,0,0,0,.183-.052l.452.235a7.285,7.285,0,0,0-.54,1.743l.747.132a6.6,6.6,0,0,1,1.792-3.473Z" transform="translate(-382.339 -471.277)" fill="none"/>
                <path id="Caminho_503" data-name="Caminho 503" d="M390.592,473.164c-.171,0-.341.006-.51.017l-.073-.626a.717.717,0,1,0-.753.086l.073.625a7.546,7.546,0,0,0-2.06.646l.327.683a6.992,6.992,0,0,1,4.471-.515l.16-.741A7.729,7.729,0,0,0,390.592,473.164Z" transform="translate(-382.339 -471.277)" fill="none"/>
                <path id="Caminho_504" data-name="Caminho 504" d="M397.194,475.711a.6.6,0,1,0-.676-.589l-.416.363a7.673,7.673,0,0,0-1.408-1.139l-.4.641a6.743,6.743,0,0,1,2.563,2.926l.691-.313a7.443,7.443,0,0,0-.942-1.545l.4-.351A.6.6,0,0,0,397.194,475.711Z" transform="translate(-382.339 -471.277)" fill="none"/>
                <path id="Caminho_505" data-name="Caminho 505" d="M390.044,483.372c-.386.024-.775.035-1.157.035a16.146,16.146,0,0,1-2.478-.179,8.665,8.665,0,0,1-1.271-.292,6.193,6.193,0,0,0,11.338-1.379,9.744,9.744,0,0,1-2.458,1.123A16.991,16.991,0,0,1,390.044,483.372Z" transform="translate(-382.339 -471.277)" fill="none"/>
                <path id="Caminho_506" data-name="Caminho 506" d="M390.592,474.68a6.02,6.02,0,0,0-6.08,5.944,5.857,5.857,0,0,0,.137,1.261c.674.483,2.706.89,5.348.731a11.491,11.491,0,0,0,6.672-2.159c-.005-.2-.021-.39-.045-.581A6.041,6.041,0,0,0,390.592,474.68Zm-2.16,6.515a1.85,1.85,0,1,1,1.85-1.85A1.852,1.852,0,0,1,388.432,481.2Zm4.738-.908a1.36,1.36,0,1,1,1.36-1.361A1.362,1.362,0,0,1,393.17,480.287Z" transform="translate(-382.339 -471.277)" fill="none"/>
              </g>
              <path id="Caminho_507" data-name="Caminho 507" d="M406.6,476.547a2.807,2.807,0,0,0-1.382-.237c-.551.069-.844.34-.844,1.007v.866H406.6V479.9h-2.228v5.454h-1.932V479.9H401.1v-1.717h1.339v-.889a2.461,2.461,0,0,1,2.569-2.782,3.933,3.933,0,0,1,1.59.308Z" transform="translate(-382.339 -471.277)" fill="none"/>
              <path id="Caminho_508" data-name="Caminho 508" d="M411.3,479.879a3.312,3.312,0,0,0-.526-.046,1.435,1.435,0,0,0-1.51,1.614v3.907H407.33v-7.171H409.2v.784a2.263,2.263,0,0,1,2.02-.977,1.8,1.8,0,0,1,1.1.337Z" transform="translate(-382.339 -471.277)" fill="none"/>
              <path id="Caminho_509" data-name="Caminho 509" d="M418.965,481.757a5.6,5.6,0,0,1-.037.652h-5.085a1.732,1.732,0,0,0,1.843,1.487,2.9,2.9,0,0,0,1.814-.688l1.132,1.243a4.35,4.35,0,0,1-3.057,1.089,3.777,3.777,0,0,1-.1-7.55A3.465,3.465,0,0,1,418.965,481.757Zm-5.114-.666h3.175a1.6,1.6,0,0,0-3.175,0Z" transform="translate(-382.339 -471.277)" fill="none"/>
              <path id="Caminho_510" data-name="Caminho 510" d="M426.618,481.757a5.6,5.6,0,0,1-.037.652H421.5a1.73,1.73,0,0,0,1.843,1.487,2.9,2.9,0,0,0,1.813-.688l1.132,1.243a4.349,4.349,0,0,1-3.056,1.089,3.777,3.777,0,0,1-.1-7.55A3.465,3.465,0,0,1,426.618,481.757Zm-5.114-.666h3.175a1.6,1.6,0,0,0-3.175,0Z" transform="translate(-382.339 -471.277)" fill="none"/>
              <path id="Caminho_511" data-name="Caminho 511" d="M434.964,481.765a3.553,3.553,0,0,1-3.471,3.775,2.627,2.627,0,0,1-2.11-.933v3.708h-1.924V478.183h1.887v.792a2.6,2.6,0,0,1,2.139-.985A3.555,3.555,0,0,1,434.964,481.765Zm-5.677,0a1.851,1.851,0,1,0,1.843-1.976A1.842,1.842,0,0,0,429.287,481.765Z" transform="translate(-382.339 -471.277)" fill="none"/>
              <path id="Caminho_512" data-name="Caminho 512" d="M438.068,475.836a1.233,1.233,0,1,1-1.236-1.243A1.226,1.226,0,0,1,438.068,475.836Zm-.259,9.518h-1.932v-7.171h1.932Z" transform="translate(-382.339 -471.277)" fill="none"/>
              <path id="Caminho_513" data-name="Caminho 513" d="M441.032,480.736l2.7-2.553H446.1l-3.479,3.375,3.5,3.8h-2.376l-2.716-2.9v2.9H439.1V474.7h1.932Z" transform="translate(-382.339 -471.277)" fill="none"/>
            </g>
            <g id="Grupo_44" data-name="Grupo 44" transform="translate(0 4.242)">
              <path id="Caminho_514" data-name="Caminho 514" d="M309.412,485.29v-1.055a2.976,2.976,0,0,1-2.387,1.23c-1.846,0-3.149-1.406-3.149-3.7,0-2.256,1.289-3.721,3.149-3.721a2.957,2.957,0,0,1,2.387,1.245v-3.765h1.1v9.771Zm0-1.919v-3.208a2.655,2.655,0,0,0-2.124-1.143c-1.42,0-2.27,1.172-2.27,2.74s.85,2.724,2.27,2.724A2.63,2.63,0,0,0,309.412,483.371Z" transform="translate(-303.876 -475.519)" fill="none"/>
              <path id="Caminho_515" data-name="Caminho 515" d="M311.932,481.745a3.538,3.538,0,0,1,3.486-3.706c2.139,0,3.4,1.67,3.4,3.794v.278h-5.727a2.493,2.493,0,0,0,2.549,2.446,3.092,3.092,0,0,0,2.182-.893l.527.717a3.837,3.837,0,0,1-2.812,1.084A3.507,3.507,0,0,1,311.932,481.745Zm3.471-2.8a2.36,2.36,0,0,0-2.314,2.358h4.643A2.293,2.293,0,0,0,315.4,478.947Z" transform="translate(-303.876 -475.519)" fill="none"/>
              <path id="Caminho_516" data-name="Caminho 516" d="M319.607,484.352l.571-.791a3.207,3.207,0,0,0,2.329,1.011c1.084,0,1.67-.513,1.67-1.216,0-1.714-4.379-.659-4.379-3.281,0-1.1.951-2.036,2.636-2.036a3.581,3.581,0,0,1,2.622,1.025l-.513.762a2.753,2.753,0,0,0-2.109-.893c-.967,0-1.567.483-1.567,1.113,0,1.552,4.379.527,4.379,3.281,0,1.186-.952,2.138-2.783,2.138A3.762,3.762,0,0,1,319.607,484.352Z" transform="translate(-303.876 -475.519)" fill="none"/>
              <path id="Caminho_517" data-name="Caminho 517" d="M326.477,476.472a.74.74,0,1,1,1.479,0,.74.74,0,0,1-1.479,0Zm.19,8.818v-7.075h1.1v7.075Z" transform="translate(-303.876 -475.519)" fill="none"/>
              <path id="Caminho_518" data-name="Caminho 518" d="M329.582,487.106l.556-.82a2.7,2.7,0,0,0,2.3.967,2.026,2.026,0,0,0,2.271-2.124v-1.011a2.959,2.959,0,0,1-2.374,1.26c-1.845,0-3.149-1.377-3.149-3.663,0-2.27,1.289-3.676,3.149-3.676a2.934,2.934,0,0,1,2.374,1.245v-1.069h1.1v6.87c0,2.343-1.64,3.076-3.369,3.076A3.616,3.616,0,0,1,329.582,487.106Zm5.127-3.852v-3.091a2.609,2.609,0,0,0-2.11-1.143c-1.421,0-2.27,1.128-2.27,2.7s.849,2.7,2.27,2.7A2.621,2.621,0,0,0,334.709,483.254Z" transform="translate(-303.876 -475.519)" fill="none"/>
              <path id="Caminho_519" data-name="Caminho 519" d="M342.413,485.29v-4.629c0-1.245-.63-1.641-1.582-1.641a2.732,2.732,0,0,0-2.094,1.1v5.171h-1.1v-7.075h1.1v1.025a3.507,3.507,0,0,1,2.519-1.2,2.011,2.011,0,0,1,2.256,2.285v4.966Z" transform="translate(-303.876 -475.519)" fill="none"/>
              <path id="Caminho_520" data-name="Caminho 520" d="M344.932,481.745a3.538,3.538,0,0,1,3.487-3.706c2.138,0,3.4,1.67,3.4,3.794v.278H346.09a2.492,2.492,0,0,0,2.548,2.446,3.094,3.094,0,0,0,2.183-.893l.527.717a3.839,3.839,0,0,1-2.812,1.084A3.508,3.508,0,0,1,344.932,481.745Zm3.472-2.8a2.359,2.359,0,0,0-2.314,2.358h4.643A2.294,2.294,0,0,0,348.4,478.947Z" transform="translate(-303.876 -475.519)" fill="none"/>
              <path id="Caminho_521" data-name="Caminho 521" d="M358.35,485.29v-1.055a2.978,2.978,0,0,1-2.388,1.23c-1.845,0-3.149-1.406-3.149-3.7,0-2.256,1.289-3.721,3.149-3.721a2.959,2.959,0,0,1,2.388,1.245v-3.765h1.1v9.771Zm0-1.919v-3.208a2.658,2.658,0,0,0-2.124-1.143c-1.421,0-2.27,1.172-2.27,2.74s.849,2.724,2.27,2.724A2.633,2.633,0,0,0,358.35,483.371Z" transform="translate(-303.876 -475.519)" fill="none"/>
              <path id="Caminho_522" data-name="Caminho 522" d="M364.692,485.29v-9.771h1.1v3.765a2.94,2.94,0,0,1,2.388-1.245c1.846,0,3.15,1.465,3.15,3.721,0,2.3-1.3,3.7-3.15,3.7a2.979,2.979,0,0,1-2.388-1.23v1.055Zm3.208-.806c1.435,0,2.285-1.157,2.285-2.724s-.85-2.74-2.285-2.74a2.631,2.631,0,0,0-2.11,1.143v3.208A2.606,2.606,0,0,0,367.9,484.484Z" transform="translate(-303.876 -475.519)" fill="none"/>
              <path id="Caminho_523" data-name="Caminho 523" d="M372.528,487.062a1.7,1.7,0,0,0,.6.117,1.018,1.018,0,0,0,1.055-.747l.469-1.069-2.959-7.148h1.186l2.358,5.8,2.344-5.8h1.2l-3.545,8.51a2.1,2.1,0,0,1-2.08,1.436,3.541,3.541,0,0,1-.8-.1Z" transform="translate(-303.876 -475.519)" fill="none"/>
            </g>
          </g>
        </g>
      </g>
    </g>
  </g>
</svg>
