<svg xmlns="http://www.w3.org/2000/svg" xmlns:xlink="http://www.w3.org/1999/xlink" width="163.288" height="80.93" viewBox="0 0 163.288 80.93">
  <defs>
    <linearGradient id="linear-gradient" y1="0.5" x2="1" y2="0.5" gradientUnits="objectBoundingBox">
      <stop offset="0" stop-color="#ffcc09"/>
      <stop offset="0.31" stop-color="#9ebd16"/>
      <stop offset="0.49" stop-color="#40a429"/>
      <stop offset="0.74" stop-color="#9ebd16"/>
      <stop offset="1" stop-color="#ffcc09"/>
    </linearGradient>
  </defs>
  <g id="logogov" transform="translate(-263.303 -668.968)">
    <path id="Caminho_100" data-name="Caminho 100" d="M318.5,554.145H319.6l3.068,7.387,3.053-7.387h1.111l-3.811,9.1h-.718l-3.811-9.1Zm10.312,0h1.018v9.1h-1.018v-9.1Zm3.942,6.7a2.367,2.367,0,0,0,2.283,1.644c1.657,0,1.828-1.136,1.828-1.6,0-1.084-.757-1.463-2.036-2.024-1.384-.613-2.39-1.148-2.39-2.622a2.314,2.314,0,0,1,2.494-2.259,2.585,2.585,0,0,1,2.454,1.45l-.875.443a1.622,1.622,0,0,0-1.593-.953,1.363,1.363,0,0,0-1.461,1.292c0,.979.757,1.294,1.853,1.789,1.671.743,2.571,1.343,2.571,2.871a2.536,2.536,0,0,1-2.859,2.557,3.162,3.162,0,0,1-3.145-2.18l.874-.4Zm12.282-.784-1.814-4.334-1.814,4.334Zm-2.559-7.962c.666,0,1.045.51,1.528.51.325,0,.508-.157.6-.535l.64.052c-.092.784-.444,1.279-1.2,1.279-.691,0-1.044-.51-1.541-.51a.542.542,0,0,0-.562.459l-.64-.053a1.22,1.22,0,0,1,1.175-1.2Zm.353,2.049h.782l3.85,9.1h-1.1l-.94-2.244h-4.411l-.939,2.244h-1.1l3.85-9.1Zm10.181,8.341a3.785,3.785,0,1,0-3.733-3.785,3.653,3.653,0,0,0,3.733,3.785Zm0-8.509a4.725,4.725,0,1,1-4.738,4.724,4.653,4.653,0,0,1,4.738-4.724Zm14.92,8.327c2.532,0,3.746-1.488,3.746-3.6s-1.214-3.616-3.759-3.616h-1.828V562.3Zm-2.859-8.158h2.924a4.551,4.551,0,1,1,.013,9.1H365.07v-9.1Zm9.738,0h5.142v.94h-4.124v2.884H379.7v.94h-3.875V562.3h4.215v.94h-5.233v-9.1Zm13.066,0h4.752v.94h-3.734v2.937H392.3v.939h-3.407v4.282h-1.018v-9.1Zm6.8,0h1.018v5.809a2.391,2.391,0,1,0,4.777,0v-5.809h1.018v5.914a3.407,3.407,0,0,1-6.813,0v-5.914Zm11.082.94h-2.481v-.939h5.979v.939h-2.48v8.158h-1.018v-8.158Zm5.287-.94h1.018v5.809a2.391,2.391,0,1,0,4.777,0v-5.809h1.018v5.914a3.407,3.407,0,0,1-6.813,0v-5.914Zm12.413,4.556a1.777,1.777,0,0,0,1.814-1.841,1.723,1.723,0,0,0-1.749-1.775h-2.049V558.7Zm-3-4.556h3.107a2.684,2.684,0,0,1,2.727,2.715,2.719,2.719,0,0,1-1.736,2.583l2.192,3.8h-1.161l-2.05-3.6h-2.062v3.6h-1.018v-9.1Zm12.322,8.341a3.785,3.785,0,1,0-3.733-3.785,3.654,3.654,0,0,0,3.733,3.785Zm0-8.509a4.725,4.725,0,1,1-4.738,4.724,4.652,4.652,0,0,1,4.738-4.724Zm6.057,8.053a.652.652,0,1,1-.653.652.654.654,0,0,1,.653-.652Zm-125.088,4.5a4.548,4.548,0,0,1,3.145,1.188l-.64.705a3.766,3.766,0,1,0-2.505,6.617,3.727,3.727,0,0,0,2.493-.913v-2.349h-2.78v-.94h3.8v3.641a4.742,4.742,0,0,1-3.511,1.5,4.725,4.725,0,1,1,0-9.45Zm9.92,8.51a3.785,3.785,0,1,0-3.734-3.784,3.653,3.653,0,0,0,3.734,3.784Zm0-8.51a4.725,4.725,0,1,1-4.738,4.725,4.654,4.654,0,0,1,4.738-4.725Zm5.483.169h1.109l3.068,7.387,3.053-7.387h1.11l-3.812,9.1h-.717l-3.811-9.1Zm10.26,0h5.142v.94h-4.124v2.884H344.3v.941h-3.876v3.393h4.215v.94h-5.233v-9.1Zm10.429,4.556a1.777,1.777,0,0,0,1.814-1.841,1.724,1.724,0,0,0-1.749-1.775h-2.05v3.616Zm-3-4.556h3.106a2.684,2.684,0,0,1,2.727,2.715A2.72,2.72,0,0,1,350.933,572l2.193,3.8h-1.162l-2.049-3.6h-2.062v3.6h-1.017v-9.1Zm8.17,0h.888l5.494,7.284V566.7h1.019v9.1h-.823l-5.56-7.362V575.8h-1.018v-9.1Zm14.215,8.34a3.785,3.785,0,1,0-3.733-3.784,3.653,3.653,0,0,0,3.733,3.784Zm0-8.51a4.725,4.725,0,1,1-4.737,4.725,4.653,4.653,0,0,1,4.737-4.725Zm14.92,8.327c2.532,0,3.745-1.489,3.745-3.6,0-2.129-1.213-3.616-3.758-3.616H382.3v7.218Zm-2.859-8.158h2.925a4.551,4.551,0,1,1,.012,9.1h-2.937v-9.1Zm9.738,0h5.142v.94h-4.124v2.884h3.876v.941h-3.876v3.393h4.215v.94h-5.233v-9.1Zm13.693.94h-2.481v-.94h5.978v.94H405.73V575.8h-1.018v-8.158Zm9.046,7.4a3.785,3.785,0,1,0-3.733-3.784,3.653,3.653,0,0,0,3.733,3.784Zm0-8.51a4.725,4.725,0,1,1-4.738,4.725,4.653,4.653,0,0,1,4.738-4.725Zm9.673,8.327c2.532,0,3.746-1.489,3.746-3.6,0-2.129-1.214-3.616-3.759-3.616H421.59v7.218Zm-2.859-8.158H423.5a4.551,4.551,0,1,1,.013,9.1h-2.937v-9.1Zm13.889,8.34a3.785,3.785,0,1,0-3.733-3.784,3.653,3.653,0,0,0,3.733,3.784Zm0-8.51a4.725,4.725,0,1,1-4.738,4.725,4.653,4.653,0,0,1,4.738-4.725Zm7.023,6.865a2.367,2.367,0,0,0,2.285,1.645c1.657,0,1.827-1.136,1.827-1.607,0-1.082-.757-1.461-2.036-2.022-1.384-.614-2.389-1.148-2.389-2.624a2.312,2.312,0,0,1,2.493-2.257,2.585,2.585,0,0,1,2.454,1.448l-.876.444a1.622,1.622,0,0,0-1.592-.954,1.363,1.363,0,0,0-1.461,1.293c0,.98.757,1.292,1.853,1.788,1.67.743,2.571,1.344,2.571,2.871a2.537,2.537,0,0,1-2.859,2.559,3.164,3.164,0,0,1-3.146-2.18l.875-.405Zm7,1.189a.652.652,0,1,1-.654.652A.653.653,0,0,1,448.48,574.586Z" transform="translate(-34.234 173.916)" fill="#3c3c3c" fill-rule="evenodd"/>
    <path id="Caminho_101" data-name="Caminho 101" d="M291.622,541.979H454.911v-3.02H291.622Z" transform="translate(-28.319 178.377)" fill-rule="evenodd" fill="url(#linear-gradient)"/>
    <path id="Caminho_102" data-name="Caminho 102" d="M327.136,493.142l-6.829-16.72-6.828,16.72Zm-9.949-26.786h6.241l17.131,41.033h-7.771l-3.356-8.183h-18.25l-3.356,8.183h-7.771l17.131-41.033Zm47.562-.707A21.461,21.461,0,0,1,381,473.008l-5,4.3a14.814,14.814,0,0,0-11.244-5,14.57,14.57,0,0,0,0,29.14,14.768,14.768,0,0,0,11.363-5.121l4.944,4.3a21.2,21.2,0,0,1-16.307,7.476c-12.068,0-21.783-8.949-21.783-21.194s9.715-21.252,21.783-21.252ZM402.244,486.2a6.444,6.444,0,0,0,6.77-6.712,6.145,6.145,0,0,0-6.181-6.474h-8.419V486.2Zm-15.189-19.84h15.953a13.042,13.042,0,0,1,13.306,13.01,12.352,12.352,0,0,1-7.476,11.657l9.949,16.366h-8.3l-8.771-14.6h-7.3v14.6h-7.359V466.356Zm38.614,0h26.139v6.653h-18.78v9.772h17.6v6.651h-17.6v11.3h19.191v6.653h-26.55Z" transform="translate(-31.188 203.319)" fill="#284b8c" fill-rule="evenodd"/>
  </g>
</svg>
