<svg xmlns="http://www.w3.org/2000/svg" width="317.001" height="261" viewBox="0 0 317.001 261">
  <g id="pracaicon" transform="translate(-1566 -247)">
    <g id="Grupo_58" data-name="Grupo 58" transform="translate(-10 41)">
      <g id="Subtração_1" data-name="Subtração 1" transform="translate(6509 1530)" fill="#f598c0">
        <path d="M -4722.00048828125 -1145.50048828125 L -4834.00048828125 -1145.50048828125 C -4838.14013671875 -1145.50048828125 -4842.0322265625 -1147.112670898438 -4844.9599609375 -1150.040161132812 C -4847.88818359375 -1152.968139648438 -4849.50048828125 -1156.860595703125 -4849.50048828125 -1161.00048828125 L -4849.50048828125 -1230.00048828125 C -4849.50048828125 -1234.658325195312 -4848.58837890625 -1239.17626953125 -4846.78955078125 -1243.4287109375 C -4845.0517578125 -1247.53662109375 -4842.56396484375 -1251.226196289062 -4839.3955078125 -1254.394897460938 C -4836.2275390625 -1257.563110351562 -4832.5380859375 -1260.05078125 -4828.42919921875 -1261.788818359375 C -4824.27294921875 -1263.546508789062 -4819.86376953125 -1264.45751953125 -4815.31884765625 -1264.498168945312 C -4810.984375 -1247.4033203125 -4795.6953125 -1235.5 -4778 -1235.5 C -4760.3154296875 -1235.5 -4745.0302734375 -1247.39453125 -4740.6875 -1264.475708007812 C -4736.13525390625 -1264.310791015625 -4731.73095703125 -1263.294677734375 -4727.58984375 -1261.453247070312 C -4723.46484375 -1259.619018554688 -4719.76708984375 -1257.044189453125 -4716.599609375 -1253.800537109375 C -4710.08642578125 -1247.131713867188 -4706.49951171875 -1238.323974609375 -4706.49951171875 -1229 L -4706.49951171875 -1161.00048828125 C -4706.49951171875 -1156.860473632812 -4708.11181640625 -1152.968017578125 -4711.0400390625 -1150.040161132812 C -4713.9677734375 -1147.112670898438 -4717.85986328125 -1145.50048828125 -4722.00048828125 -1145.50048828125 Z" stroke="none"/>
        <path d="M -4722.00048828125 -1146.00048828125 C -4717.99365234375 -1146.00048828125 -4714.2265625 -1147.560668945312 -4711.3935546875 -1150.393798828125 C -4708.56005859375 -1153.227172851562 -4706.99951171875 -1156.994018554688 -4706.99951171875 -1161.00048828125 L -4706.99951171875 -1229 C -4706.99951171875 -1238.192626953125 -4710.53564453125 -1246.876220703125 -4716.95703125 -1253.451171875 C -4720.08056640625 -1256.649291992188 -4723.72607421875 -1259.187866210938 -4727.79296875 -1260.996459960938 C -4731.75390625 -1262.757568359375 -4735.95947265625 -1263.753051757812 -4740.3046875 -1263.959350585938 C -4744.8369140625 -1246.866333007812 -4760.22119140625 -1235 -4778 -1235 C -4795.79248046875 -1235 -4811.18408203125 -1246.880615234375 -4815.70458984375 -1263.992553710938 C -4820.04541015625 -1263.905151367188 -4824.2578125 -1263.010009765625 -4828.234375 -1261.328247070312 C -4832.28369140625 -1259.615478515625 -4835.91943359375 -1257.163818359375 -4839.0419921875 -1254.041259765625 C -4842.1650390625 -1250.918334960938 -4844.61669921875 -1247.2822265625 -4846.3291015625 -1243.23388671875 C -4848.1015625 -1239.04345703125 -4849.00048828125 -1234.591064453125 -4849.00048828125 -1230.00048828125 L -4849.00048828125 -1161.00048828125 C -4849.00048828125 -1156.994140625 -4847.43994140625 -1153.227172851562 -4844.6064453125 -1150.393798828125 C -4841.7734375 -1147.560668945312 -4838.0068359375 -1146.00048828125 -4834.00048828125 -1146.00048828125 L -4722.00048828125 -1146.00048828125 M -4722.00048828125 -1145.00048828125 L -4834.00048828125 -1145.00048828125 C -4838.27392578125 -1145.00048828125 -4842.29150390625 -1146.664672851562 -4845.3134765625 -1149.686645507812 C -4848.3359375 -1152.708984375 -4850.00048828125 -1156.726928710938 -4850.00048828125 -1161.00048828125 L -4850.00048828125 -1230.00048828125 C -4850.00048828125 -1234.725341796875 -4849.0751953125 -1239.308837890625 -4847.25 -1243.62353515625 C -4845.4873046875 -1247.790649414062 -4842.9638671875 -1251.533569335938 -4839.7490234375 -1254.748413085938 C -4836.53515625 -1257.962524414062 -4832.7919921875 -1260.486206054688 -4828.6240234375 -1262.249267578125 C -4824.30859375 -1264.07421875 -4819.72509765625 -1264.999633789062 -4815 -1264.999633789062 L -4814.92822265625 -1264.999633789062 C -4810.78076171875 -1247.9248046875 -4795.595703125 -1236 -4778 -1236 C -4760.41064453125 -1236 -4745.2265625 -1247.920288085938 -4741.0751953125 -1264.987915039062 C -4736.314453125 -1264.867797851562 -4731.708984375 -1263.83203125 -4727.38671875 -1261.91015625 C -4723.2041015625 -1260.050170898438 -4719.4541015625 -1257.439208984375 -4716.24169921875 -1254.14990234375 C -4709.63671875 -1247.386840820312 -4705.99951171875 -1238.455078125 -4705.99951171875 -1229 L -4705.99951171875 -1161.00048828125 C -4705.99951171875 -1156.726806640625 -4707.6640625 -1152.708862304688 -4710.6865234375 -1149.686645507812 C -4713.70849609375 -1146.664672851562 -4717.7265625 -1145.00048828125 -4722.00048828125 -1145.00048828125 Z" stroke="none" fill="#707070"/>
      </g>
      <g id="Elipse_2" data-name="Elipse 2" transform="translate(1693 206)" fill="#f598c0" stroke="#707070" stroke-width="1">
        <circle cx="38" cy="38" r="38" stroke="none"/>
        <circle cx="38" cy="38" r="37.5" fill="none"/>
      </g>
    </g>
    <g id="Grupo_60" data-name="Grupo 60" transform="translate(80 96)">
      <g id="Subtração_1-2" data-name="Subtração 1" transform="translate(6509 1530)" fill="#fff700">
        <path d="M -4722.00048828125 -1145.50048828125 L -4834.00048828125 -1145.50048828125 C -4838.14013671875 -1145.50048828125 -4842.0322265625 -1147.112670898438 -4844.9599609375 -1150.040161132812 C -4847.88818359375 -1152.968139648438 -4849.50048828125 -1156.860595703125 -4849.50048828125 -1161.00048828125 L -4849.50048828125 -1230.00048828125 C -4849.50048828125 -1234.658325195312 -4848.58837890625 -1239.17626953125 -4846.78955078125 -1243.4287109375 C -4845.0517578125 -1247.53662109375 -4842.56396484375 -1251.226196289062 -4839.3955078125 -1254.394897460938 C -4836.2275390625 -1257.563110351562 -4832.5380859375 -1260.05078125 -4828.42919921875 -1261.788818359375 C -4824.27294921875 -1263.546508789062 -4819.86376953125 -1264.45751953125 -4815.31884765625 -1264.498168945312 C -4810.984375 -1247.4033203125 -4795.6953125 -1235.5 -4778 -1235.5 C -4760.3154296875 -1235.5 -4745.0302734375 -1247.39453125 -4740.6875 -1264.475708007812 C -4736.13525390625 -1264.310791015625 -4731.73095703125 -1263.294677734375 -4727.58984375 -1261.453247070312 C -4723.46484375 -1259.619018554688 -4719.76708984375 -1257.044189453125 -4716.599609375 -1253.800537109375 C -4710.08642578125 -1247.131713867188 -4706.49951171875 -1238.323974609375 -4706.49951171875 -1229 L -4706.49951171875 -1161.00048828125 C -4706.49951171875 -1156.860473632812 -4708.11181640625 -1152.968017578125 -4711.0400390625 -1150.040161132812 C -4713.9677734375 -1147.112670898438 -4717.85986328125 -1145.50048828125 -4722.00048828125 -1145.50048828125 Z" stroke="none"/>
        <path d="M -4722.00048828125 -1146.00048828125 C -4717.99365234375 -1146.00048828125 -4714.2265625 -1147.560668945312 -4711.3935546875 -1150.393798828125 C -4708.56005859375 -1153.227172851562 -4706.99951171875 -1156.994018554688 -4706.99951171875 -1161.00048828125 L -4706.99951171875 -1229 C -4706.99951171875 -1238.192626953125 -4710.53564453125 -1246.876220703125 -4716.95703125 -1253.451171875 C -4720.08056640625 -1256.649291992188 -4723.72607421875 -1259.187866210938 -4727.79296875 -1260.996459960938 C -4731.75390625 -1262.757568359375 -4735.95947265625 -1263.753051757812 -4740.3046875 -1263.959350585938 C -4744.8369140625 -1246.866333007812 -4760.22119140625 -1235 -4778 -1235 C -4795.79248046875 -1235 -4811.18408203125 -1246.880615234375 -4815.70458984375 -1263.992553710938 C -4820.04541015625 -1263.905151367188 -4824.2578125 -1263.010009765625 -4828.234375 -1261.328247070312 C -4832.28369140625 -1259.615478515625 -4835.91943359375 -1257.163818359375 -4839.0419921875 -1254.041259765625 C -4842.1650390625 -1250.918334960938 -4844.61669921875 -1247.2822265625 -4846.3291015625 -1243.23388671875 C -4848.1015625 -1239.04345703125 -4849.00048828125 -1234.591064453125 -4849.00048828125 -1230.00048828125 L -4849.00048828125 -1161.00048828125 C -4849.00048828125 -1156.994140625 -4847.43994140625 -1153.227172851562 -4844.6064453125 -1150.393798828125 C -4841.7734375 -1147.560668945312 -4838.0068359375 -1146.00048828125 -4834.00048828125 -1146.00048828125 L -4722.00048828125 -1146.00048828125 M -4722.00048828125 -1145.00048828125 L -4834.00048828125 -1145.00048828125 C -4838.27392578125 -1145.00048828125 -4842.29150390625 -1146.664672851562 -4845.3134765625 -1149.686645507812 C -4848.3359375 -1152.708984375 -4850.00048828125 -1156.726928710938 -4850.00048828125 -1161.00048828125 L -4850.00048828125 -1230.00048828125 C -4850.00048828125 -1234.725341796875 -4849.0751953125 -1239.308837890625 -4847.25 -1243.62353515625 C -4845.4873046875 -1247.790649414062 -4842.9638671875 -1251.533569335938 -4839.7490234375 -1254.748413085938 C -4836.53515625 -1257.962524414062 -4832.7919921875 -1260.486206054688 -4828.6240234375 -1262.249267578125 C -4824.30859375 -1264.07421875 -4819.72509765625 -1264.999633789062 -4815 -1264.999633789062 L -4814.92822265625 -1264.999633789062 C -4810.78076171875 -1247.9248046875 -4795.595703125 -1236 -4778 -1236 C -4760.41064453125 -1236 -4745.2265625 -1247.920288085938 -4741.0751953125 -1264.987915039062 C -4736.314453125 -1264.867797851562 -4731.708984375 -1263.83203125 -4727.38671875 -1261.91015625 C -4723.2041015625 -1260.050170898438 -4719.4541015625 -1257.439208984375 -4716.24169921875 -1254.14990234375 C -4709.63671875 -1247.386840820312 -4705.99951171875 -1238.455078125 -4705.99951171875 -1229 L -4705.99951171875 -1161.00048828125 C -4705.99951171875 -1156.726806640625 -4707.6640625 -1152.708862304688 -4710.6865234375 -1149.686645507812 C -4713.70849609375 -1146.664672851562 -4717.7265625 -1145.00048828125 -4722.00048828125 -1145.00048828125 Z" stroke="none" fill="#707070"/>
      </g>
      <g id="Elipse_2-2" data-name="Elipse 2" transform="translate(1693 206)" fill="#fff700" stroke="#707070" stroke-width="1">
        <circle cx="38" cy="38" r="38" stroke="none"/>
        <circle cx="38" cy="38" r="37.5" fill="none"/>
      </g>
    </g>
    <g id="Grupo_61" data-name="Grupo 61" transform="translate(-93 96)">
      <g id="Subtração_1-3" data-name="Subtração 1" transform="translate(6509 1530)" fill="lime">
        <path d="M -4722.00048828125 -1145.50048828125 L -4834.00048828125 -1145.50048828125 C -4838.14013671875 -1145.50048828125 -4842.0322265625 -1147.112670898438 -4844.9599609375 -1150.040161132812 C -4847.88818359375 -1152.968139648438 -4849.50048828125 -1156.860595703125 -4849.50048828125 -1161.00048828125 L -4849.50048828125 -1230.00048828125 C -4849.50048828125 -1234.658325195312 -4848.58837890625 -1239.17626953125 -4846.78955078125 -1243.4287109375 C -4845.0517578125 -1247.53662109375 -4842.56396484375 -1251.226196289062 -4839.3955078125 -1254.394897460938 C -4836.2275390625 -1257.563110351562 -4832.5380859375 -1260.05078125 -4828.42919921875 -1261.788818359375 C -4824.27294921875 -1263.546508789062 -4819.86376953125 -1264.45751953125 -4815.31884765625 -1264.498168945312 C -4810.984375 -1247.4033203125 -4795.6953125 -1235.5 -4778 -1235.5 C -4760.3154296875 -1235.5 -4745.0302734375 -1247.39453125 -4740.6875 -1264.475708007812 C -4736.13525390625 -1264.310791015625 -4731.73095703125 -1263.294677734375 -4727.58984375 -1261.453247070312 C -4723.46484375 -1259.619018554688 -4719.76708984375 -1257.044189453125 -4716.599609375 -1253.800537109375 C -4710.08642578125 -1247.131713867188 -4706.49951171875 -1238.323974609375 -4706.49951171875 -1229 L -4706.49951171875 -1161.00048828125 C -4706.49951171875 -1156.860473632812 -4708.11181640625 -1152.968017578125 -4711.0400390625 -1150.040161132812 C -4713.9677734375 -1147.112670898438 -4717.85986328125 -1145.50048828125 -4722.00048828125 -1145.50048828125 Z" stroke="none"/>
        <path d="M -4722.00048828125 -1146.00048828125 C -4717.99365234375 -1146.00048828125 -4714.2265625 -1147.560668945312 -4711.3935546875 -1150.393798828125 C -4708.56005859375 -1153.227172851562 -4706.99951171875 -1156.994018554688 -4706.99951171875 -1161.00048828125 L -4706.99951171875 -1229 C -4706.99951171875 -1238.192626953125 -4710.53564453125 -1246.876220703125 -4716.95703125 -1253.451171875 C -4720.08056640625 -1256.649291992188 -4723.72607421875 -1259.187866210938 -4727.79296875 -1260.996459960938 C -4731.75390625 -1262.757568359375 -4735.95947265625 -1263.753051757812 -4740.3046875 -1263.959350585938 C -4744.8369140625 -1246.866333007812 -4760.22119140625 -1235 -4778 -1235 C -4795.79248046875 -1235 -4811.18408203125 -1246.880615234375 -4815.70458984375 -1263.992553710938 C -4820.04541015625 -1263.905151367188 -4824.2578125 -1263.010009765625 -4828.234375 -1261.328247070312 C -4832.28369140625 -1259.615478515625 -4835.91943359375 -1257.163818359375 -4839.0419921875 -1254.041259765625 C -4842.1650390625 -1250.918334960938 -4844.61669921875 -1247.2822265625 -4846.3291015625 -1243.23388671875 C -4848.1015625 -1239.04345703125 -4849.00048828125 -1234.591064453125 -4849.00048828125 -1230.00048828125 L -4849.00048828125 -1161.00048828125 C -4849.00048828125 -1156.994140625 -4847.43994140625 -1153.227172851562 -4844.6064453125 -1150.393798828125 C -4841.7734375 -1147.560668945312 -4838.0068359375 -1146.00048828125 -4834.00048828125 -1146.00048828125 L -4722.00048828125 -1146.00048828125 M -4722.00048828125 -1145.00048828125 L -4834.00048828125 -1145.00048828125 C -4838.27392578125 -1145.00048828125 -4842.29150390625 -1146.664672851562 -4845.3134765625 -1149.686645507812 C -4848.3359375 -1152.708984375 -4850.00048828125 -1156.726928710938 -4850.00048828125 -1161.00048828125 L -4850.00048828125 -1230.00048828125 C -4850.00048828125 -1234.725341796875 -4849.0751953125 -1239.308837890625 -4847.25 -1243.62353515625 C -4845.4873046875 -1247.790649414062 -4842.9638671875 -1251.533569335938 -4839.7490234375 -1254.748413085938 C -4836.53515625 -1257.962524414062 -4832.7919921875 -1260.486206054688 -4828.6240234375 -1262.249267578125 C -4824.30859375 -1264.07421875 -4819.72509765625 -1264.999633789062 -4815 -1264.999633789062 L -4814.92822265625 -1264.999633789062 C -4810.78076171875 -1247.9248046875 -4795.595703125 -1236 -4778 -1236 C -4760.41064453125 -1236 -4745.2265625 -1247.920288085938 -4741.0751953125 -1264.987915039062 C -4736.314453125 -1264.867797851562 -4731.708984375 -1263.83203125 -4727.38671875 -1261.91015625 C -4723.2041015625 -1260.050170898438 -4719.4541015625 -1257.439208984375 -4716.24169921875 -1254.14990234375 C -4709.63671875 -1247.386840820312 -4705.99951171875 -1238.455078125 -4705.99951171875 -1229 L -4705.99951171875 -1161.00048828125 C -4705.99951171875 -1156.726806640625 -4707.6640625 -1152.708862304688 -4710.6865234375 -1149.686645507812 C -4713.70849609375 -1146.664672851562 -4717.7265625 -1145.00048828125 -4722.00048828125 -1145.00048828125 Z" stroke="none" fill="#707070"/>
      </g>
      <g id="Elipse_2-3" data-name="Elipse 2" transform="translate(1693 206)" fill="lime" stroke="#707070" stroke-width="1">
        <circle cx="38" cy="38" r="38" stroke="none"/>
        <circle cx="38" cy="38" r="37.5" fill="none"/>
      </g>
    </g>
    <g id="Grupo_59" data-name="Grupo 59" transform="translate(-10 123)">
      <g id="Subtração_1-4" data-name="Subtração 1" transform="translate(6509 1530)" fill="#1700ff">
        <path d="M -4722.00048828125 -1145.50048828125 L -4834.00048828125 -1145.50048828125 C -4838.14013671875 -1145.50048828125 -4842.0322265625 -1147.112670898438 -4844.9599609375 -1150.040161132812 C -4847.88818359375 -1152.968139648438 -4849.50048828125 -1156.860595703125 -4849.50048828125 -1161.00048828125 L -4849.50048828125 -1230.00048828125 C -4849.50048828125 -1234.658325195312 -4848.58837890625 -1239.17626953125 -4846.78955078125 -1243.4287109375 C -4845.0517578125 -1247.53662109375 -4842.56396484375 -1251.226196289062 -4839.3955078125 -1254.394897460938 C -4836.2275390625 -1257.563110351562 -4832.5380859375 -1260.05078125 -4828.42919921875 -1261.788818359375 C -4824.27294921875 -1263.546508789062 -4819.86376953125 -1264.45751953125 -4815.31884765625 -1264.498168945312 C -4810.984375 -1247.4033203125 -4795.6953125 -1235.5 -4778 -1235.5 C -4760.3154296875 -1235.5 -4745.0302734375 -1247.39453125 -4740.6875 -1264.475708007812 C -4736.13525390625 -1264.310791015625 -4731.73095703125 -1263.294677734375 -4727.58984375 -1261.453247070312 C -4723.46484375 -1259.619018554688 -4719.76708984375 -1257.044189453125 -4716.599609375 -1253.800537109375 C -4710.08642578125 -1247.131713867188 -4706.49951171875 -1238.323974609375 -4706.49951171875 -1229 L -4706.49951171875 -1161.00048828125 C -4706.49951171875 -1156.860473632812 -4708.11181640625 -1152.968017578125 -4711.0400390625 -1150.040161132812 C -4713.9677734375 -1147.112670898438 -4717.85986328125 -1145.50048828125 -4722.00048828125 -1145.50048828125 Z" stroke="none"/>
        <path d="M -4722.00048828125 -1146.00048828125 C -4717.99365234375 -1146.00048828125 -4714.2265625 -1147.560668945312 -4711.3935546875 -1150.393798828125 C -4708.56005859375 -1153.227172851562 -4706.99951171875 -1156.994018554688 -4706.99951171875 -1161.00048828125 L -4706.99951171875 -1229 C -4706.99951171875 -1238.192626953125 -4710.53564453125 -1246.876220703125 -4716.95703125 -1253.451171875 C -4720.08056640625 -1256.649291992188 -4723.72607421875 -1259.187866210938 -4727.79296875 -1260.996459960938 C -4731.75390625 -1262.757568359375 -4735.95947265625 -1263.753051757812 -4740.3046875 -1263.959350585938 C -4744.8369140625 -1246.866333007812 -4760.22119140625 -1235 -4778 -1235 C -4795.79248046875 -1235 -4811.18408203125 -1246.880615234375 -4815.70458984375 -1263.992553710938 C -4820.04541015625 -1263.905151367188 -4824.2578125 -1263.010009765625 -4828.234375 -1261.328247070312 C -4832.28369140625 -1259.615478515625 -4835.91943359375 -1257.163818359375 -4839.0419921875 -1254.041259765625 C -4842.1650390625 -1250.918334960938 -4844.61669921875 -1247.2822265625 -4846.3291015625 -1243.23388671875 C -4848.1015625 -1239.04345703125 -4849.00048828125 -1234.591064453125 -4849.00048828125 -1230.00048828125 L -4849.00048828125 -1161.00048828125 C -4849.00048828125 -1156.994140625 -4847.43994140625 -1153.227172851562 -4844.6064453125 -1150.393798828125 C -4841.7734375 -1147.560668945312 -4838.0068359375 -1146.00048828125 -4834.00048828125 -1146.00048828125 L -4722.00048828125 -1146.00048828125 M -4722.00048828125 -1145.00048828125 L -4834.00048828125 -1145.00048828125 C -4838.27392578125 -1145.00048828125 -4842.29150390625 -1146.664672851562 -4845.3134765625 -1149.686645507812 C -4848.3359375 -1152.708984375 -4850.00048828125 -1156.726928710938 -4850.00048828125 -1161.00048828125 L -4850.00048828125 -1230.00048828125 C -4850.00048828125 -1234.725341796875 -4849.0751953125 -1239.308837890625 -4847.25 -1243.62353515625 C -4845.4873046875 -1247.790649414062 -4842.9638671875 -1251.533569335938 -4839.7490234375 -1254.748413085938 C -4836.53515625 -1257.962524414062 -4832.7919921875 -1260.486206054688 -4828.6240234375 -1262.249267578125 C -4824.30859375 -1264.07421875 -4819.72509765625 -1264.999633789062 -4815 -1264.999633789062 L -4814.92822265625 -1264.999633789062 C -4810.78076171875 -1247.9248046875 -4795.595703125 -1236 -4778 -1236 C -4760.41064453125 -1236 -4745.2265625 -1247.920288085938 -4741.0751953125 -1264.987915039062 C -4736.314453125 -1264.867797851562 -4731.708984375 -1263.83203125 -4727.38671875 -1261.91015625 C -4723.2041015625 -1260.050170898438 -4719.4541015625 -1257.439208984375 -4716.24169921875 -1254.14990234375 C -4709.63671875 -1247.386840820312 -4705.99951171875 -1238.455078125 -4705.99951171875 -1229 L -4705.99951171875 -1161.00048828125 C -4705.99951171875 -1156.726806640625 -4707.6640625 -1152.708862304688 -4710.6865234375 -1149.686645507812 C -4713.70849609375 -1146.664672851562 -4717.7265625 -1145.00048828125 -4722.00048828125 -1145.00048828125 Z" stroke="none" fill="#707070"/>
      </g>
      <g id="Elipse_2-4" data-name="Elipse 2" transform="translate(1693 206)" fill="#1700ff" stroke="#707070" stroke-width="1">
        <circle cx="38" cy="38" r="38" stroke="none"/>
        <circle cx="38" cy="38" r="37.5" fill="none"/>
      </g>
    </g>
  </g>
</svg>
